<?xml version="1.0" standalone="yes"?>

<svg version="1.1" viewBox="0.0 0.0 269.90288713910763 269.90288713910763" fill="none" stroke="none" stroke-linecap="square" stroke-miterlimit="10" xmlns="http://www.w3.org/2000/svg" xmlns:xlink="http://www.w3.org/1999/xlink"><clipPath id="p.0"><path d="m0 0l269.9029 0l0 269.9029l-269.9029 0l0 -269.9029z" clip-rule="nonzero"></path></clipPath><g clip-path="url(#p.0)"><path fill="#000000" fill-opacity="0.0" d="m0 0l269.9029 0l0 269.9029l-269.9029 0z" fill-rule="evenodd"></path><path fill="#783f04" d="m269.44882 269.44882l-224.5398 0l-44.909035 -44.909042l0 -224.53978l0 0l224.53978 0l44.909042 44.909035l0 224.5398z" fill-rule="evenodd"></path><path fill="#ffffff" d="m165.78075 57.924416l0 8.9375l-2.703125 0q-3.640625 0 -6.8125 0.515625q-3.171875 0.53125 -5.5625 2.140625q-2.390625 1.609375 -3.75 4.625q-1.359375 3.015625 -1.359375 8.015625l0 103.59376q0 4.984375 1.359375 8.0q1.359375 3.015625 3.75 4.625q2.390625 1.609375 5.5625 2.125q3.171875 0.53125 6.8125 0.53125l2.703125 0l0 8.9375l-61.984383 0l0 -8.9375l2.796875 0q3.546875 0 6.765625 -0.53125q3.21875 -0.515625 5.5625 -2.125q2.3437576 -1.609375 3.7500076 -4.625q1.40625 -3.015625 1.40625 -8.0l0 -103.59376q0 -5.0 -1.40625 -8.015625q-1.40625 -3.015625 -3.7500076 -4.625q-2.34375 -1.609375 -5.5625 -2.140625q-3.21875 -0.515625 -6.765625 -0.515625l-2.796875 0l0 -8.9375l61.984383 0z" fill-rule="nonzero"></path></g></svg>

