<?xml version="1.0" standalone="yes"?>

<svg version="1.1" viewBox="0.0 0.0 960.0 720.0" fill="none" stroke="none" stroke-linecap="square" stroke-miterlimit="10" xmlns="http://www.w3.org/2000/svg" xmlns:xlink="http://www.w3.org/1999/xlink"><clipPath id="p.0"><path d="m0 0l960.0 0l0 720.0l-960.0 0l0 -720.0z" clip-rule="nonzero"></path></clipPath><g clip-path="url(#p.0)"><path fill="#000000" fill-opacity="0.0" d="m0 0l960.0 0l0 720.0l-960.0 0z" fill-rule="evenodd"></path><path fill="#783f04" d="m614.7244 494.7244l-224.5398 0l-44.909027 -44.909027l0 -224.53978l0 0l224.53976 0l44.909058 44.909042l0 224.53976z" fill-rule="evenodd"></path><path fill="#ffffff" d="m511.05634 283.2l0 8.9375l-2.703125 0q-3.640625 0 -6.8125 0.515625q-3.171875 0.53125 -5.5625 2.140625q-2.390625 1.609375 -3.75 4.625q-1.359375 3.015625 -1.359375 8.015625l0 103.59375q0 4.984375 1.359375 8.0q1.359375 3.015625 3.75 4.625q2.390625 1.609375 5.5625 2.125q3.171875 0.53125 6.8125 0.53125l2.703125 0l0 8.9375l-61.984375 0l0 -8.9375l2.796875 0q3.546875 0 6.765625 -0.53125q3.21875 -0.515625 5.5625 -2.125q2.34375 -1.609375 3.75 -4.625q1.40625 -3.015625 1.40625 -8.0l0 -103.59375q0 -5.0 -1.40625 -8.015625q-1.40625 -3.015625 -3.75 -4.625q-2.34375 -1.609375 -5.5625 -2.140625q-3.21875 -0.515625 -6.765625 -0.515625l-2.796875 0l0 -8.9375l61.984375 0z" fill-rule="nonzero"></path></g></svg>

